name ./resultDataOpenSim/trcMotMarkerGrf/sub10/grf-05-02.mot
datacolumns 19
datarows 27
range 0.52800000 0.63200000
endheader

                time	     ground_force_vx	     ground_force_vy	     ground_force_vz	     ground_force_px	     ground_force_py	     ground_force_pz	   l_ground_force_vx	   l_ground_force_vy	   l_ground_force_vz	   l_ground_force_px	   l_ground_force_py	   l_ground_force_pz	     ground_torque_x	     ground_torque_y	     ground_torque_z	   l_ground_torque_x	   l_ground_torque_y	   l_ground_torque_z	
          0.52800000	         41.95383908	        487.24730900	        -20.20626666	         -0.76826472	          0.00000000	          0.06744056	          0.00000000	          0.00000000	          0.00000000	          0.00000000	          0.00000000	          0.00000000	          0.00000000	          2.49066123	          0.00000000	          0.00000000	          0.00000000	          0.00000000	
          0.53200000	         44.22652194	        490.70916575	        -20.19916212	         -0.76741938	          0.00000000	          0.06758181	          0.00000000	          0.00000000	          0.00000000	          0.00000000	          0.00000000	          0.00000000	          0.00000000	          2.54979810	          0.00000000	          0.00000000	          0.00000000	          0.00000000	
          0.53600000	         46.46050521	        494.30512831	        -19.81604544	         -0.76641857	          0.00000000	          0.06772686	          0.00000000	          0.00000000	          0.00000000	          0.00000000	          0.00000000	          0.00000000	          0.00000000	          2.66135617	          0.00000000	          0.00000000	          0.00000000	          0.00000000	
          0.54000000	         48.66441281	        498.08416481	        -19.23547485	         -0.76526480	          0.00000000	          0.06787650	          0.00000000	          0.00000000	          0.00000000	          0.00000000	          0.00000000	          0.00000000	          0.00000000	          2.80948491	          0.00000000	          0.00000000	          0.00000000	          0.00000000	
          0.54400000	         50.77445957	        502.11927527	        -18.68260467	         -0.76394625	          0.00000000	          0.06803040	          0.00000000	          0.00000000	          0.00000000	          0.00000000	          0.00000000	          0.00000000	          0.00000000	          2.97372530	          0.00000000	          0.00000000	          0.00000000	          0.00000000	
          0.54800000	         52.66668699	        506.49066919	        -18.38188097	         -0.76244320	          0.00000000	          0.06818677	          0.00000000	          0.00000000	          0.00000000	          0.00000000	          0.00000000	          0.00000000	          0.00000000	          3.13353246	          0.00000000	          0.00000000	          0.00000000	          0.00000000	
          0.55200000	         54.19202158	        511.26411153	        -18.51058720	         -0.76073948	          0.00000000	          0.06834077	          0.00000000	          0.00000000	          0.00000000	          0.00000000	          0.00000000	          0.00000000	          0.00000000	          3.27260528	          0.00000000	          0.00000000	          0.00000000	          0.00000000	
          0.55600000	         55.22368011	        516.47310774	        -19.16117738	         -0.75882931	          0.00000000	          0.06848827	          0.00000000	          0.00000000	          0.00000000	          0.00000000	          0.00000000	          0.00000000	          0.00000000	          3.38203272	          0.00000000	          0.00000000	          0.00000000	          0.00000000	
          0.56000000	         55.69940589	        522.12340262	        -20.32190957	         -0.75672121	          0.00000000	          0.06863032	          0.00000000	          0.00000000	          0.00000000	          0.00000000	          0.00000000	          0.00000000	          0.00000000	          3.46158566	          0.00000000	          0.00000000	          0.00000000	          0.00000000	
          0.56400000	         55.64546737	        528.21309699	        -21.88038592	         -0.75444543	          0.00000000	          0.06876936	          0.00000000	          0.00000000	          0.00000000	          0.00000000	          0.00000000	          0.00000000	          0.00000000	          3.51897334	          0.00000000	          0.00000000	          0.00000000	          0.00000000	
          0.56800000	         55.17754454	        534.74144489	        -23.64933600	         -0.75205681	          0.00000000	          0.06890432	          0.00000000	          0.00000000	          0.00000000	          0.00000000	          0.00000000	          0.00000000	          0.00000000	          3.56735384	          0.00000000	          0.00000000	          0.00000000	          0.00000000	
          0.57200000	         54.48160445	        541.70263027	        -25.40990732	         -0.74962105	          0.00000000	          0.06903105	          0.00000000	          0.00000000	          0.00000000	          0.00000000	          0.00000000	          0.00000000	          0.00000000	          3.62171702	          0.00000000	          0.00000000	          0.00000000	          0.00000000	
          0.57600000	         53.78269269	        549.08111674	        -26.96216835	         -0.74719920	          0.00000000	          0.06914402	          0.00000000	          0.00000000	          0.00000000	          0.00000000	          0.00000000	          0.00000000	          0.00000000	          3.69491916	          0.00000000	          0.00000000	          0.00000000	          0.00000000	
          0.58000000	         53.30824202	        556.84710692	        -28.16927679	         -0.74484411	          0.00000000	          0.06923951	          0.00000000	          0.00000000	          0.00000000	          0.00000000	          0.00000000	          0.00000000	          0.00000000	          3.79415977	          0.00000000	          0.00000000	          0.00000000	          0.00000000	
          0.58400000	         53.25095410	        564.94881174	        -28.98496196	         -0.74259870	          0.00000000	          0.06932047	          0.00000000	          0.00000000	          0.00000000	          0.00000000	          0.00000000	          0.00000000	          0.00000000	          3.91857744	          0.00000000	          0.00000000	          0.00000000	          0.00000000	
          0.58800000	         53.73907845	        573.31793683	        -29.46074449	         -0.74048440	          0.00000000	          0.06939266	          0.00000000	          0.00000000	          0.00000000	          0.00000000	          0.00000000	          0.00000000	          0.00000000	          4.05843957	          0.00000000	          0.00000000	          0.00000000	          0.00000000	
          0.59200000	         54.82415194	        581.88526200	        -29.73210568	         -0.73849934	          0.00000000	          0.06946178	          0.00000000	          0.00000000	          0.00000000	          0.00000000	          0.00000000	          0.00000000	          0.00000000	          4.19614841	          0.00000000	          0.00000000	          0.00000000	          0.00000000	
          0.59600000	         56.49138175	        590.58422963	        -29.98511533	         -0.73663270	          0.00000000	          0.06953401	          0.00000000	          0.00000000	          0.00000000	          0.00000000	          0.00000000	          0.00000000	          0.00000000	          4.30898749	          0.00000000	          0.00000000	          0.00000000	          0.00000000	
          0.60000000	         58.68730693	        599.34429588	        -30.41348551	         -0.73487073	          0.00000000	          0.06961609	          0.00000000	          0.00000000	          0.00000000	          0.00000000	          0.00000000	          0.00000000	          0.00000000	          4.37319637	          0.00000000	          0.00000000	          0.00000000	          0.00000000	
          0.60400000	         61.35092855	        608.09561632	        -31.17932055	         -0.73320425	          0.00000000	          0.06971547	          0.00000000	          0.00000000	          0.00000000	          0.00000000	          0.00000000	          0.00000000	          0.00000000	          4.36862597	          0.00000000	          0.00000000	          0.00000000	          0.00000000	
          0.60800000	         64.43630258	        616.79028658	        -32.38194471	         -0.73163490	          0.00000000	          0.06983357	          0.00000000	          0.00000000	          0.00000000	          0.00000000	          0.00000000	          0.00000000	          0.00000000	          4.28298758	          0.00000000	          0.00000000	          0.00000000	          0.00000000	
          0.61200000	         67.92388932	        625.41197602	        -34.03406603	         -0.73018282	          0.00000000	          0.06995828	          0.00000000	          0.00000000	          0.00000000	          0.00000000	          0.00000000	          0.00000000	          0.00000000	          4.11474616	          0.00000000	          0.00000000	          0.00000000	          0.00000000	
          0.61600000	         71.82179290	        633.95334703	        -36.05069412	         -0.72887168	          0.00000000	          0.07007161	          0.00000000	          0.00000000	          0.00000000	          0.00000000	          0.00000000	          0.00000000	          0.00000000	          3.87408247	          0.00000000	          0.00000000	          0.00000000	          0.00000000	
          0.62000000	         76.15746627	        642.38245707	        -38.25840123	         -0.72771940	          0.00000000	          0.07015512	          0.00000000	          0.00000000	          0.00000000	          0.00000000	          0.00000000	          0.00000000	          0.00000000	          3.58182870	          0.00000000	          0.00000000	          0.00000000	          0.00000000	
          0.62400000	         80.96062441	        650.63061225	        -40.42302395	         -0.72672366	          0.00000000	          0.07019371	          0.00000000	          0.00000000	          0.00000000	          0.00000000	          0.00000000	          0.00000000	          0.00000000	          3.26663860	          0.00000000	          0.00000000	          0.00000000	          0.00000000	
          0.62800000	         86.23999750	        658.60844677	        -42.28711801	         -0.72587792	          0.00000000	          0.07017117	          0.00000000	          0.00000000	          0.00000000	          0.00000000	          0.00000000	          0.00000000	          0.00000000	          2.96087138	          0.00000000	          0.00000000	          0.00000000	          0.00000000	
          0.63200000	         91.96443079	        666.22381067	        -43.61385736	         -0.72517966	          0.00000000	          0.07006908	          0.00000000	          0.00000000	          0.00000000	          0.00000000	          0.00000000	          0.00000000	          0.00000000	          2.69581677	          0.00000000	          0.00000000	          0.00000000	          0.00000000	
